<?xml version="1.0" encoding="utf-8"?>
<!-- Generator: Adobe Illustrator 27.3.1, SVG Export Plug-In . SVG Version: 6.00 Build 0)  -->
<svg version="1.1" id="Capa_1" xmlns="http://www.w3.org/2000/svg" xmlns:xlink="http://www.w3.org/1999/xlink" x="0px" y="0px"
	 viewBox="0 0 250 150" style="enable-background:new 0 0 250 150;" xml:space="preserve">
<g id="logo_maso">
	<path d="M20.09,58.78c0.81-1.89,1.58-3.8,2.43-5.67c0.97-2.13,2.75-3.47,4.79-4.45c3.3-1.58,6.82-2.14,10.45-2.01
		c4.83,0.17,9.5,1.18,14,2.9c5.23,2,10.06,4.72,14.2,8.55c2.49,2.3,4.64,4.87,6.17,7.92c1.55,3.07,1.86,6.23,0.47,9.46
		c-0.63,1.47-1.29,2.94-1.94,4.4c-0.06,0.13-0.14,0.26-0.27,0.49c-0.14-0.67-0.23-1.23-0.36-1.78c-0.74-3.02-2.21-5.67-4.2-8.05
		c-3.61-4.3-8.02-7.54-13.02-10.07c-4.34-2.19-8.89-3.7-13.65-4.54c-4.16-0.74-8.35-0.84-12.52,0.11
		C24.54,56.51,22.65,57.32,20.09,58.78z"/>
	<path d="M33,81.68c-0.11-0.64-0.21-1.27-0.34-2c0.34,0.04,0.61,0.04,0.87,0.1c2.24,0.46,4.47,0.93,6.71,1.38
		c0.33,0.07,0.68,0.11,1.01,0.06c0.2-0.03,0.47-0.24,0.51-0.41c0.04-0.18-0.1-0.5-0.26-0.62c-0.24-0.17-0.57-0.22-0.87-0.28
		c-1.72-0.37-3.44-0.76-5.17-1.08c-0.79-0.15-1.28-0.56-1.55-1.28c-0.28-0.76-0.49-1.53-0.2-2.34c0.22-0.61,0.31-0.7,0.94-0.6
		c1.34,0.22,2.68,0.44,4.01,0.7c2.13,0.41,4.2,1.01,6.21,1.83c1.35,0.55,2.66,1.21,3.64,2.32c0.55,0.61,1.02,1.31,1.41,2.04
		c0.29,0.53,0.63,0.92,1.22,1.01c1.13,0.18,2.25,0.42,3.39,0.48c4.95,0.28,9.74-0.39,14.21-2.68c0.1-0.05,0.23-0.07,0.37-0.12
		c0.3,1.28,0.16,2.48-0.34,3.65c-1.24,2.85-3.46,4.67-6.24,5.89c-2.02,0.88-4.17,1.32-6.35,1.65c-2.38,0.35-4.77,0.64-7.2,0.61
		c-0.54-0.01-1.13,0.13-1.6,0.37c-2.97,1.52-6.1,1.5-9.32,1.18c-4.67-0.45-9.16-1.68-13.69-2.79c-0.66-0.16-1.32-0.33-1.98-0.5
		c-0.41-0.1-0.52-0.37-0.48-0.76c0.11-1.19,1-2.08,2.29-2.13c0.73-0.03,1.48,0.07,2.2,0.24c1.62,0.37,3.23,0.83,4.84,1.23
		c0.45,0.11,0.9,0.21,1.36,0.25c0.29,0.03,0.6-0.1,0.6-0.44c0-0.24-0.1-0.58-0.27-0.71c-0.25-0.2-0.61-0.29-0.93-0.37
		c-1.83-0.43-3.66-0.89-5.51-1.24c-0.9-0.17-1.84-0.16-2.76-0.17c-0.67-0.01-1.28,0.25-1.75,0.73c-0.39,0.4-0.81,0.48-1.34,0.29
		c-0.61-0.21-1.24-0.35-1.81-0.52c-0.55-1.37,0.51-2.94,1.97-2.89c0.83,0.03,1.66,0.12,2.47,0.29c3.14,0.65,6.28,1.35,9.42,2.02
		c0.27,0.06,0.55,0.08,0.83,0.09c0.3,0.01,0.55-0.09,0.61-0.44c0.06-0.34-0.01-0.63-0.35-0.77c-0.25-0.11-0.52-0.19-0.8-0.24
		c-3.64-0.71-7.27-1.41-10.91-2.12c-1.09-0.21-2.15-0.2-3.15,0.37c-0.12,0.07-0.28,0.07-0.43,0.1c-0.17-1.29,0.57-2,1.84-1.85
		c2.08,0.25,4.17,0.48,6.25,0.75c1.59,0.21,3.18,0.46,4.76,0.73c0.64,0.11,1.26,0.32,1.89,0.44c0.39,0.08,0.8,0.09,1.2,0.11
		c0.33,0.02,0.53-0.14,0.58-0.46c0.06-0.34-0.02-0.65-0.37-0.75C34.16,81.91,33.65,81.83,33,81.68z"/>
	<path d="M31.75,81.38c-4.8-0.54-9.5-0.85-14.17-2.01c0.43-1.98,0.96-3.84,2.21-5.39c0.44-0.54,0.45-0.96,0.11-1.55
		c-0.89-1.56-1.59-3.22-1.79-5.02c-0.12-1.06-0.13-2.16-0.04-3.22c0.2-2.16,1.64-3.49,3.35-4.71c0.56,1.24,1.02,2.43,1.61,3.56
		c0.6,1.14,1.31,2.22,2.3,3.27c0.51-1.66,1-3.19,2.04-4.55c0.64,1.22,1,2.47,1.29,3.72c1.17,4.95,2.28,9.91,3.01,14.95
		C31.72,80.69,31.72,80.97,31.75,81.38z"/>
	<path d="M191.32,86.32c0,0.82,0,1.49,0,2.17c0,0.67,0,1.34,0,2.07c-1.2,0-2.27,0-3.4,0c0-4.37,0-8.73,0-13.14c1.03,0,2.04,0,3.1,0
		c0.08,0.23,0.16,0.49,0.23,0.69c2.81-1.54,5.19-1.09,6.91,1.64c1.1,1.75,0.77,4.41-0.62,5.89
		C195.74,87.56,193.64,87.61,191.32,86.32z M195.34,82.38c0.02-1.25-0.55-2.12-1.43-2.39c-0.88-0.26-1.89,0.12-2.38,0.97
		c-0.43,0.74-0.38,1.53-0.1,2.31c0.32,0.89,0.98,1.31,2,1.28c0.9-0.03,1.59-0.56,1.81-1.42C195.31,82.83,195.32,82.51,195.34,82.38z
		"/>
	<path d="M135.11,78.24c0.05-0.32,0.09-0.56,0.14-0.84c1,0,1.98,0,2.95,0c0.2,0.63,0.29,11.51,0.12,13.02
		c-0.6,0.23-1.81,0.28-3.27,0.11c-0.12-1.34,0.02-2.72-0.07-4.16c-0.2,0.06-0.36,0.08-0.47,0.15c-2.66,1.76-6.8,0.02-6.94-3.85
		c-0.07-1.7,0.37-3.13,1.66-4.32c1.17-1.09,3.97-1.66,5.58-0.3C134.86,78.12,134.95,78.15,135.11,78.24z M135.14,82.29
		c-0.17-0.49-0.28-1-0.52-1.46c-0.36-0.7-1.01-0.98-1.78-0.92c-0.8,0.06-1.43,0.44-1.72,1.2c-0.29,0.77-0.3,1.56,0.07,2.33
		c0.33,0.67,0.87,1.03,1.6,1.09C134.13,84.66,135.05,83.75,135.14,82.29z"/>
	<path d="M147.52,77.4c1.16,0,2.17,0,3.3,0c0.1,3.2,0.07,6.35,0.02,9.62c-0.61,0.01-1.12,0.03-1.63,0.03c-0.49,0.01-0.98,0-1.51,0
		c-0.05-0.26-0.09-0.5-0.14-0.78c-0.15,0.08-0.29,0.13-0.41,0.21c-1.75,1.03-3.46,0.96-5.13-0.17c-0.56-0.38-0.95-0.89-1.11-1.54
		c-0.12-0.48-0.28-0.96-0.29-1.45c-0.03-1.94-0.01-3.88-0.01-5.93c0.58-0.02,1.13-0.04,1.67-0.04c0.55-0.01,1.1,0,1.71,0
		c0.03,0.3,0.08,0.54,0.08,0.77c0,1.33,0,2.65-0.01,3.98c0,0.18-0.01,0.37-0.01,0.55c0.04,1.05,0.55,1.64,1.45,1.7
		c0.95,0.06,1.76-0.55,1.9-1.52c0.09-0.67,0.1-1.35,0.11-2.03C147.53,79.71,147.52,78.6,147.52,77.4z"/>
	<path d="M114.23,77.43c0,3.24,0,6.37,0,9.58c-1.05,0-2.05,0-3.09,0c-0.05-0.28-0.09-0.52-0.15-0.81c-0.16,0.08-0.3,0.11-0.41,0.2
		c-1.37,1.17-3.74,0.91-4.95,0.05c-0.87-0.63-1.28-1.48-1.52-2.45c-0.16-0.66-0.14-5.77,0.02-6.59c0.16-0.01,0.34-0.04,0.52-0.04
		c0.86,0,1.72,0,2.64,0c0.03,0.3,0.08,0.53,0.08,0.76c0.01,1.36-0.01,2.72,0.01,4.07c0.01,0.39,0.04,0.81,0.2,1.17
		c0.53,1.24,2,1.39,2.83,0.31c0.36-0.46,0.49-0.98,0.48-1.56c-0.01-1.23,0-2.47,0-3.7c0-0.31,0-0.61,0-0.99
		C112.02,77.43,113.08,77.43,114.23,77.43z"/>
	<path d="M218.14,83.09c-2.35,0-4.65,0-6.98,0c0.34,1.1,0.89,1.5,2.06,1.56c0.92,0.05,1.77-0.16,2.52-0.79
		c0.6,0.63,1.12,1.19,1.69,1.79c-0.56,0.66-1.21,1.1-2,1.3c-1.53,0.39-3.06,0.36-4.56-0.18c-1.91-0.69-3.15-2.44-3.16-4.47
		c-0.02-2.1,1.19-3.89,3.1-4.61c2.36-0.89,4.67-0.42,6.27,1.36c0.34,0.37,0.55,0.88,0.76,1.35
		C218.15,81.11,218.25,82.11,218.14,83.09z M211.03,81.19c1.02,0.21,3.53,0.16,4.03-0.06c-0.47-1.04-1.16-1.55-2.06-1.51
		C211.99,79.66,211.35,80.17,211.03,81.19z"/>
	<path d="M162.85,83.08c-1.09,0.01-2.22,0.01-3.35,0.02c-1.14,0-2.27,0-3.42,0c0.12,0.87,0.52,1.32,1.33,1.47
		c0.9,0.16,1.78,0.15,2.59-0.36c0.15-0.1,0.33-0.17,0.52-0.26c0.56,0.57,1.12,1.12,1.71,1.71c-0.22,0.42-0.6,0.68-1.02,0.87
		c-2.3,1.04-4.53,0.99-6.69-0.4c-1.03-0.66-1.61-1.64-1.85-2.78c-0.7-3.33,1.55-5.63,4.24-6.02c1.25-0.18,2.45,0.01,3.6,0.58
		C162.37,78.83,163.42,81.36,162.85,83.08z M159.81,81.27c-0.43-1.53-1.33-1.72-2.19-1.66c-0.97,0.07-1.55,0.69-1.63,1.66
		C157.24,81.27,158.48,81.27,159.81,81.27z"/>
	<path d="M126.37,83.13c-2.4,0-4.67,0-6.97,0c0.62,1.69,2.3,1.98,4.59,0.8c0.25,0.24,0.54,0.51,0.81,0.79
		c0.28,0.28,0.54,0.58,0.85,0.92c-0.7,0.9-1.68,1.29-2.7,1.47c-1.42,0.25-2.81,0.09-4.17-0.5c-3.51-1.52-3.66-6.05-1.04-8.18
		c2.03-1.65,5.83-1.7,7.73,0.82C126.31,80.33,126.53,81.62,126.37,83.13z M119.31,81.31c0.72,0,1.36,0,2,0c0.62,0,1.25,0,1.89,0
		c-0.26-1.19-0.83-1.66-1.93-1.7C120.32,79.57,119.59,80.17,119.31,81.31z"/>
	<path d="M95.07,74.6c0,0.91,0,1.76,0,2.71c-1.24,0-2.46,0-3.76,0c-0.18,1.15-0.1,2.22-0.11,3.28c-0.01,1.05,0,2.1,0,3.15
		c0,1.07,0,2.14,0,3.27c-1.18,0-2.27,0-3.48,0c0-3.22,0-6.37,0-9.62c-1.33,0-2.55,0-3.84,0c0-0.97,0-1.84,0-2.78
		C87.57,74.6,91.26,74.6,95.07,74.6z"/>
	<path d="M186.68,87.03c-0.89,0-1.6-0.09-2.27,0.02c-1.15,0.18-1.87-0.23-2.34-1.26c-0.2-0.43-0.55-0.8-0.88-1.27
		c-0.55,0.73-1.04,1.35-1.49,2c-0.29,0.42-0.64,0.6-1.17,0.57c-0.88-0.05-1.76-0.01-2.83-0.01c1.3-1.7,2.47-3.23,3.67-4.81
		c-1.17-1.61-2.32-3.18-3.57-4.89c1.25,0,2.35-0.02,3.45,0.02c0.19,0.01,0.41,0.23,0.55,0.41c0.5,0.66,0.98,1.33,1.53,2.1
		c0.42-0.6,0.83-1.13,1.18-1.69c0.4-0.64,0.91-0.92,1.69-0.86c0.73,0.06,1.47,0.01,2.41,0.01c-1.16,1.71-2.4,3.18-3.51,4.77
		C184.25,83.74,185.41,85.31,186.68,87.03z"/>
	<path d="M227.81,78.02c-0.25,0.62-0.44,1.14-0.66,1.64c-0.26,0.59-0.34,0.59-1.01,0.41c-0.65-0.18-1.31-0.35-1.97-0.44
		c-0.39-0.05-0.8,0.04-1.19,0.1c-0.32,0.05-0.51,0.3-0.44,0.6c0.05,0.19,0.27,0.42,0.46,0.47c0.62,0.18,1.27,0.27,1.9,0.41
		c0.54,0.12,1.09,0.22,1.6,0.43c1.78,0.71,2.24,2.75,0.97,4.18c-0.51,0.57-1.15,0.93-1.88,1.11c-1.78,0.44-3.55,0.3-5.3-0.2
		c-0.23-0.07-0.45-0.19-0.67-0.31c-0.13-0.07-0.25-0.16-0.45-0.28c0.31-0.69,0.6-1.35,0.89-1.99c1.05,0.22,2.06,0.48,3.08,0.63
		c0.47,0.07,0.98-0.02,1.46-0.12c0.15-0.03,0.36-0.28,0.36-0.44c0.01-0.17-0.16-0.44-0.31-0.5c-0.4-0.15-0.83-0.21-1.25-0.3
		c-0.69-0.15-1.4-0.24-2.08-0.44c-1.05-0.31-1.77-0.99-1.93-2.13c-0.16-1.15,0.24-2.08,1.23-2.69c0.54-0.33,1.15-0.65,1.77-0.76
		C224.19,77.1,225.99,77.25,227.81,78.02z"/>
	<path d="M228.99,86.23c0.35-0.78,0.67-1.47,1.01-2.23c0.97,0.54,1.98,0.78,3.03,0.8c0.4,0.01,0.8-0.01,1.2-0.04
		c0.38-0.03,0.7-0.23,0.67-0.61c-0.02-0.18-0.34-0.43-0.56-0.49c-0.69-0.17-1.4-0.24-2.09-0.41c-0.57-0.13-1.15-0.27-1.66-0.53
		c-1.38-0.69-1.81-2.3-1-3.62c0.47-0.77,1.16-1.26,2.02-1.52c1.72-0.52,3.42-0.34,5.12,0.08c0.29,0.07,0.55,0.24,0.95,0.42
		c-0.34,0.75-0.65,1.43-0.96,2.09c-0.85-0.19-1.61-0.42-2.39-0.51c-0.51-0.06-1.04,0.03-1.55,0.14c-0.17,0.04-0.39,0.34-0.39,0.52
		c0,0.17,0.22,0.46,0.4,0.51c0.59,0.17,1.21,0.25,1.81,0.36c0.45,0.09,0.92,0.14,1.36,0.28c1.45,0.43,2.1,1.41,2.03,2.91
		c-0.03,0.6-0.29,1.06-0.69,1.47c-0.72,0.73-1.63,1.14-2.62,1.28c-1.64,0.23-3.27,0.02-4.85-0.47
		C229.56,86.56,229.31,86.39,228.99,86.23z"/>
	<path d="M102.54,80.16c-0.38,0.04-0.71,0.08-1.04,0.1c-1.15,0.07-1.76,0.57-1.94,1.71c-0.12,0.76-0.12,1.53-0.14,2.3
		c-0.02,0.83,0,1.66-0.01,2.49c0,0.06-0.04,0.11-0.11,0.29c-1.02,0.04-2.07,0.08-3.19-0.04c0-3.21,0-6.36,0-9.58
		c1.02,0,2.02,0,3.08,0c0.04,0.29,0.07,0.58,0.12,0.95c0.95-0.61,1.9-1.16,3.18-1.1C102.59,78.21,102.54,79.14,102.54,80.16z"/>
	<path d="M203.78,87.02c-1.14,0-2.21,0-3.28,0c0-3.19,0-6.38,0-9.61c1.06,0,2.04,0,3.07,0c0.05,0.3,0.1,0.58,0.17,0.94
		c0.97-0.6,1.9-1.2,3.15-1.01c0,0.93,0,1.84,0,2.83c-0.34,0.03-0.63,0.07-0.93,0.09c-1.37,0.12-2.07,0.82-2.12,2.2
		c-0.04,1.33-0.01,2.65-0.01,3.98C203.82,86.59,203.8,86.75,203.78,87.02z"/>
	<path d="M164.89,77.18c0-0.87,0-1.69,0-2.58c3.3,0,6.56,0,9.93,0c0.07,0.84,0.05,1.68,0.01,2.51
		C174.08,77.31,166.26,77.36,164.89,77.18z"/>
	<path d="M174.81,79.49c0,0.84,0,1.62,0,2.53c-3.32,0.07-6.6,0.04-9.92,0.02c0-0.9,0-1.69,0-2.55
		C168.21,79.49,171.48,79.49,174.81,79.49z"/>
	<path d="M174.82,84.44c0,0.86,0,1.65,0,2.44c-0.5,0.18-8.57,0.23-9.9,0.06c0-0.8,0-1.62,0-2.51
		C168.19,84.44,171.45,84.44,174.82,84.44z"/>
</g>
</svg>
